<svg fill="none" height="14" viewBox="0 0 14 14" width="14" xmlns="http://www.w3.org/2000/svg" xmlns:xlink="http://www.w3.org/1999/xlink"><clipPath id="a"><path d="m0 0h14v14h-14z"/></clipPath><g clip-path="url(#a)" stroke="#000001" stroke-linecap="round" stroke-linejoin="round"><path d="m11.5.5h1c.2652 0 .5196.105357.7071.292893.1875.187537.2929.441887.2929.707107v1"/><path d="m.5 2.5v-1c0-.26522.105357-.51957.292893-.707107.187537-.187536.441887-.292893.707107-.292893h1"/><path d="m5.5.5h3"/><path d="m13.5 5.5v3"/><path d="m.5 5.5v3"/><path d="m11.5 13.5h1c.2652 0 .5196-.1054.7071-.2929s.2929-.4419.2929-.7071v-1"/><path d="m.5 11.5v1c0 .2652.105357.5196.292893.7071.187537.1875.441887.2929.707107.2929h1"/><path d="m5.5 13.5h3"/></g></svg>