<svg height="32" viewBox="0 0 32 32" width="32" xmlns="http://www.w3.org/2000/svg"><path d="m22.5 23a4.5 4.5 0 1 1 4.5-4.5 4.505 4.505 0 0 1 -4.5 4.5zm0-7a2.5 2.5 0 1 0 2.5 2.5 2.5026 2.5026 0 0 0 -2.5-2.5z"/><path d="m28 8h-2v-5h-7v5h-2a2.002 2.002 0 0 0 -2 2v18a2.0023 2.0023 0 0 0 2 2h11a2.0027 2.0027 0 0 0 2-2v-18a2.0023 2.0023 0 0 0 -2-2zm-7-3h3v3h-3zm-4 23v-18h11l.002 18z"/><path d="m2 14h3v3h-3z"/><path d="m7 9h3v3h-3z"/><path d="m2 9h3v3h-3z"/><path d="m12 4h3v3h-3z"/><path d="m7 4h3v3h-3z"/><path d="m2 4h3v3h-3z"/><path d="m0 0h32v32h-32z" fill="none"/></svg>