<svg viewBox="0 0 48 48" xmlns="http://www.w3.org/2000/svg"><path d="m44 40v1a2 2 0 0 1 -2 2h-36a2 2 0 0 1 -2-2v-1a5 5 0 0 1 2.61-4.39c1.57-.86-.04-.61 32.39-.61a5 5 0 0 1 5 5z" fill="#a87e6b"/><path d="m44 40v1h-35c-2.46 0-3.88-2.67-2.39-5.39a4.93 4.93 0 0 1 2.39-.61h30a5 5 0 0 1 5 5z" fill="#be927c"/><path d="m42 43v2a2 2 0 0 1 -2 2h-32a2 2 0 0 1 -2-2v-2z" fill="#374f68"/><path d="m42 43v2h-32a2 2 0 0 1 -2-2z" fill="#425b72"/><path d="m32 32v3h-16v-3a2 2 0 0 1 2-2h12a2 2 0 0 1 2 2z" fill="#fc6"/><path d="m32 32v1h-11a3 3 0 0 1 -3-3h12a2 2 0 0 1 2 2z" fill="#ffde76"/><path d="m34 10.68c.17 5.72-3.38 5.93-5 13.32h-10a17.39 17.39 0 0 0 -3.16-7.22 10 10 0 0 1 8.48-15.78 10.11 10.11 0 0 1 9.68 9.68z" fill="#a87e6b"/><path d="m19 24h10v6h-10z" fill="#a87e6b"/><g fill="#be927c"><path d="m34 9.92c.6 5.81-2.82 6.63-4.45 12.08h-5.9a4 4 0 0 1 -3.65-2.48c-1.69-4-4-5-4-9.52a10 10 0 0 1 4.55-8.39 10 10 0 0 1 13.45 8.31z"/><path d="m29 24v4h-4a4 4 0 0 1 -4-4z"/></g></svg>